<?xml version="1.0" encoding="UTF-8"?>
<svg version="1.1" xmlns="http://www.w3.org/2000/svg" width="1024" height="1024">
<path d="M0 0 C337.92 0 675.84 0 1024 0 C1024 337.92 1024 675.84 1024 1024 C686.08 1024 348.16 1024 0 1024 C0 686.08 0 348.16 0 0 Z " fill="#00000000" transform="translate(0,0)"/>
<path d="M0 0 C1.2983931 -0.00029205 2.59678619 -0.00058411 3.93452454 -0.00088501 C7.47325043 -0.00145589 11.01183912 0.0102552 14.55053329 0.02426291 C18.25674483 0.0368147 21.96295994 0.03794426 25.66918945 0.04031372 C32.6777731 0.04651547 39.68629392 0.06290851 46.69484997 0.0830127 C54.67794608 0.10541246 62.66104529 0.11637536 70.64416504 0.12640357 C87.05709004 0.14727598 103.46992856 0.18393579 119.8828125 0.22705078 C119.8828125 14.41705078 119.8828125 28.60705078 119.8828125 43.22705078 C116.4170874 43.24687012 112.9513623 43.26668945 109.38061523 43.28710938 C97.88544071 43.35423978 86.3903492 43.43177954 74.89527798 43.51457787 C67.93093959 43.56449083 60.96661173 43.61093422 54.00219727 43.64892578 C47.27180715 43.68565081 40.54155309 43.73242013 33.81126595 43.78511429 C31.25309457 43.8035404 28.69489729 43.81869102 26.13668633 43.83039474 C-0.71884802 43.95757227 -23.25865034 45.39031195 -43.859375 64.82861328 C-54.58481153 76.22207008 -60.80578782 92.70255665 -67.796875 106.52001953 C-81.81592316 134.02120466 -103.19818594 156.3491341 -133.01806641 166.31982422 C-145.3876388 170.3115395 -157.57801947 171.5135206 -170.52193642 171.50144577 C-172.85888133 171.50046049 -175.19539068 171.51365327 -177.53227234 171.53042603 C-184.16658246 171.57610181 -190.80084013 171.60126662 -197.43530273 171.60791016 C-201.52243154 171.61298438 -205.6090958 171.63751834 -209.6960659 171.67323685 C-211.23186616 171.6828901 -212.76773147 171.68544806 -214.30355263 171.68006516 C-235.57217315 171.60899229 -252.1011166 177.47992458 -268.015625 191.95361328 C-272.09877633 196.1476194 -274.73718248 200.92645172 -277.3671875 206.10205078 C-277.6967041 206.74980469 -278.0262207 207.39755859 -278.36572266 208.06494141 C-283.62271635 218.89623071 -284.55334761 228.84426746 -284.50486755 240.76217651 C-284.50904487 242.43692733 -284.51452457 244.11167531 -284.52118737 245.78641808 C-284.53560846 250.36975301 -284.53140769 254.9529076 -284.52402055 259.53625226 C-284.51928292 264.48660791 -284.53180401 269.43692488 -284.54203796 274.38726807 C-284.55921965 284.07816165 -284.56006727 293.76899038 -284.55482506 303.45989524 C-284.55078093 311.33808875 -284.55222981 319.21626312 -284.55757332 327.09445572 C-284.55869595 328.77742135 -284.55869595 328.77742135 -284.55984126 330.49438629 C-284.56137277 332.77380418 -284.56291111 335.05322207 -284.56445623 337.33263995 C-284.57817901 358.70072816 -284.57274515 380.06877975 -284.56127102 401.43686713 C-284.55133904 420.97647051 -284.56427912 440.51597919 -284.58820521 460.05556796 C-284.61259999 480.12949263 -284.62220313 500.2033732 -284.61555248 520.2773124 C-284.61206109 531.54303563 -284.6142871 542.80868603 -284.63180351 554.07439804 C-284.64653019 563.66467469 -284.64715478 573.25482723 -284.6297326 582.84510146 C-284.62122411 587.73572884 -284.61906946 592.62613455 -284.63438416 597.51675034 C-284.64824556 601.99884855 -284.64344942 606.4805355 -284.62414492 610.96261002 C-284.62038906 612.57893265 -284.62329488 614.19528834 -284.63375657 615.81158148 C-284.69058916 625.26887761 -283.82767826 633.37771516 -280.1171875 642.22705078 C-279.65957031 643.35240234 -279.20195312 644.47775391 -278.73046875 645.63720703 C-270.00709852 663.42449948 -257.14328625 673.86065834 -238.72265625 680.46533203 C-232.41893774 682.30824824 -226.33075953 682.3695344 -219.82056141 682.35568523 C-218.78027246 682.35743827 -217.73998352 682.35919131 -216.66817066 682.36099747 C-213.16538936 682.36566733 -209.66264939 682.36318941 -206.15986633 682.36076355 C-203.62989985 682.36263103 -201.09993366 682.36493148 -198.56996793 682.36762887 C-193.06047251 682.37247912 -187.55098967 682.37420006 -182.04149246 682.37317276 C-173.8484772 682.37164881 -165.65547167 682.37580743 -157.4624583 682.38104739 C-141.97818638 682.39072371 -126.49391776 682.39353174 -111.00964317 682.39410444 C-99.05192674 682.39456382 -87.0942116 682.39662132 -75.13649559 682.39980507 C-71.69559564 682.4007026 -68.25469569 682.40159242 -64.81379575 682.40247995 C-63.958396 682.40270099 -63.10299625 682.40292204 -62.2216753 682.40314979 C-38.15690237 682.409305 -14.0921299 682.41325025 9.97264385 682.41280651 C10.88014655 682.41279093 11.78764925 682.41277535 12.72265204 682.4127593 C17.32234075 682.41267619 21.92202946 682.41257715 26.52171817 682.4124746 C27.43524591 682.41245465 28.34877366 682.4124347 29.28998406 682.41241415 C31.13736074 682.41237372 32.98473741 682.41233192 34.83211409 682.41228876 C63.57257005 682.41167604 92.31301421 682.41918152 121.0534668 682.43286133 C153.33752135 682.44822145 185.62156815 682.45682758 217.9056266 682.45589811 C221.34809832 682.45582347 224.79057004 682.45577477 228.23304176 682.45574379 C229.0806755 682.45573214 229.92830924 682.45572048 230.80162885 682.45570847 C244.44350246 682.4556777 258.08536583 682.46206418 271.72723639 682.47067605 C285.43803831 682.47915242 299.14882525 682.48014262 312.85962834 682.47356673 C321.00464835 682.4698709 329.14962285 682.47170444 337.29463804 682.48150907 C343.37711609 682.48821213 349.45954044 682.48445656 355.54201911 682.47663585 C358.00231559 682.4750955 360.46261699 682.47693709 362.92290767 682.48249593 C366.26767939 682.48955286 369.61221691 682.48426461 372.95698071 682.47593975 C374.3886645 682.48339202 374.3886645 682.48339202 375.84927121 682.49099484 C385.57351697 682.43985125 394.44532702 681.08675072 403.0703125 676.47705078 C403.75810791 676.11853027 404.44590332 675.76000977 405.15454102 675.390625 C410.10610081 672.75817994 414.7529025 670.05873971 418.8828125 666.22705078 C419.60597656 665.55673828 420.32914063 664.88642578 421.07421875 664.19580078 C425.80565012 659.39231715 429.21440141 654.31798981 432.2578125 648.35205078 C432.57943359 647.7289502 432.90105469 647.10584961 433.23242188 646.46386719 C438.73686133 635.0447737 439.32178237 623.49278202 439.28153992 611.06695557 C439.28698734 609.34892707 439.2937422 607.63090231 439.30168182 605.91288352 C439.31962725 601.21969997 439.3191599 596.5266753 439.31555235 591.83346558 C439.31492656 586.76202871 439.33156669 581.69064426 439.34606934 576.61923218 C439.36882566 567.84187681 439.38073533 559.06456105 439.38519859 550.28717804 C439.39166745 537.59669335 439.41461782 524.90628017 439.44154189 512.21582434 C439.484783 491.62452447 439.51476504 471.03322762 439.53637695 450.44189453 C439.55739466 430.44383258 439.58467668 410.4457953 439.62036133 390.44775391 C439.62256015 389.21429042 439.62475898 387.98082693 439.62702443 386.70998576 C439.63809428 380.52182769 439.64928706 374.33366985 439.66054094 368.1455121 C439.75368816 316.83937886 439.82448385 265.53323444 439.8828125 214.22705078 C454.0728125 214.22705078 468.2628125 214.22705078 482.8828125 214.22705078 C483.01863875 267.1966193 483.1259715 320.16614578 483.18920448 373.13585413 C483.19670812 379.39883794 483.20447411 385.6618214 483.21240234 391.92480469 C483.21397621 393.17157683 483.21555007 394.41834897 483.21717162 395.70290208 C483.24323226 415.85260613 483.29051356 436.00220678 483.34572928 456.15184963 C483.40197022 476.8492662 483.435193 497.54662885 483.44734347 518.24411869 C483.45554892 531.00088836 483.48140213 543.75736568 483.5303113 556.5140453 C483.56219 565.27878228 483.57157644 574.04336959 483.56382076 582.80816025 C483.5600029 587.85424756 483.56557721 592.89982642 483.59804535 597.94582176 C483.83259373 636.36784372 478.39686224 667.5647279 450.78515625 696.37939453 C439.30867975 707.9098417 424.60136539 715.93795555 409.3203125 721.16455078 C408.10033569 721.58824951 408.10033569 721.58824951 406.85571289 722.02050781 C391.23906571 727.04184868 375.03439752 726.51716713 358.82783508 726.49447632 C356.28826471 726.49821697 353.74869549 726.50282014 351.20912808 726.50820696 C345.70628488 726.51786058 340.20349194 726.52135894 334.70064163 726.51929474 C326.51718534 726.51623257 318.33376767 726.52459548 310.15031891 726.53504399 C294.68096651 726.55434441 279.2116274 726.56001071 263.74226437 726.56115811 C251.79294332 726.56207861 239.84362745 726.56620264 227.89430809 726.57255936 C224.44973587 726.57435455 221.00516363 726.57613418 217.5605914 726.57790911 C216.27595466 726.57857226 216.27595466 726.57857226 214.96536567 726.5792488 C190.88951273 726.59154995 166.81366159 726.59945065 142.73780537 726.59856224 C141.3773844 726.5985155 141.3773844 726.5985155 139.98948018 726.59846782 C135.39310747 726.59830162 130.79673477 726.59810354 126.20036206 726.59789841 C125.28757027 726.59785852 124.37477848 726.59781863 123.43432634 726.59777753 C121.58844089 726.59769665 119.74255544 726.59761306 117.89667 726.59752675 C89.18149998 726.5963014 60.46637721 726.61131439 31.7512207 726.63867188 C-0.53958211 726.66942356 -32.83035388 726.68660255 -65.12117225 726.68474543 C-68.56731625 726.68459618 -72.01346026 726.68449876 -75.45960426 726.6844368 C-76.30807899 726.68441349 -77.15655372 726.68439018 -78.03073981 726.68436617 C-91.65640722 726.68430474 -105.28203344 726.69705007 -118.90768861 726.71430133 C-132.61196058 726.73129277 -146.3161726 726.73320419 -160.0204493 726.72008269 C-168.15034289 726.71271724 -176.28005379 726.71627914 -184.40992785 726.73596737 C-190.49677321 726.74945615 -196.58340587 726.74179169 -202.67025397 726.72622092 C-205.12034832 726.72315992 -207.57046271 726.72674912 -210.02053341 726.73794107 C-239.41070828 726.86322515 -269.19710249 721.40065027 -291.15625 700.20751953 C-291.80335938 699.55396484 -292.45046875 698.90041016 -293.1171875 698.22705078 C-293.9628125 697.42267578 -294.8084375 696.61830078 -295.6796875 695.78955078 C-296.4840625 694.94392578 -297.2884375 694.09830078 -298.1171875 693.22705078 C-299.09751953 692.22158203 -299.09751953 692.22158203 -300.09765625 691.19580078 C-317.5669134 672.67417874 -328.21349346 646.73580539 -328.25140858 621.14619255 C-328.25376081 620.46568095 -328.25611304 619.78516934 -328.25853655 619.08403617 C-328.26517645 616.81104319 -328.26476985 614.53810803 -328.26435852 612.2651062 C-328.2676603 610.61586074 -328.27138653 608.96661608 -328.2755 607.31737244 C-328.28549291 602.79029688 -328.28923244 598.26323457 -328.29188931 593.73614955 C-328.29580056 588.85102068 -328.30537848 583.96590223 -328.31410217 579.08078003 C-328.33384599 567.28371542 -328.34393128 555.48664999 -328.35282996 543.68957299 C-328.35721728 538.1275322 -328.36258303 532.56549235 -328.36781883 527.0034523 C-328.38483092 508.50140773 -328.39932278 489.99936374 -328.40656757 471.49731255 C-328.40847733 466.69807815 -328.41039768 461.89884375 -328.41235352 457.09960938 C-328.41283726 455.90684927 -328.413321 454.71408916 -328.4138194 453.4851848 C-328.42211105 434.18427242 -328.44743344 414.88342219 -328.47993419 395.58253692 C-328.51306508 375.74484498 -328.53102188 355.90718455 -328.53421181 336.0694648 C-328.5363716 324.9403327 -328.5450419 313.81129117 -328.57067299 302.68218613 C-328.59246268 293.19933771 -328.60039004 283.71660186 -328.59070621 274.23373125 C-328.58618503 269.40275731 -328.58791925 264.57201521 -328.60746765 259.74107361 C-328.74556871 223.57528315 -325.74967024 192.53008301 -301.1171875 164.22705078 C-299.94736328 162.75365234 -299.94736328 162.75365234 -298.75390625 161.25048828 C-296.04292243 157.99501951 -292.96575659 155.42920704 -289.6171875 152.85205078 C-289.00480225 152.37872314 -288.39241699 151.90539551 -287.76147461 151.41772461 C-265.97522712 134.8377598 -243.01543731 128.17952026 -215.89083672 127.99725533 C-213.50609513 127.9806458 -211.12149874 127.95740624 -208.73683167 127.93235779 C-201.96305743 127.86210363 -195.18922794 127.80146916 -188.4152832 127.75024414 C-184.25509692 127.71832326 -180.09508738 127.67702981 -175.93504524 127.63004875 C-174.35914358 127.6141251 -172.78320151 127.60175958 -171.20724297 127.59314156 C-152.1463683 127.48733012 -136.20373372 122.44562241 -121.94140625 109.20751953 C-113.0764386 99.92942718 -107.90801428 87.96889265 -102.54321289 76.48095703 C-88.25985758 45.96415425 -69.46872062 19.30089178 -36.68359375 7.09423828 C-31.5294284 5.35264816 -26.35082363 3.71345341 -21.1171875 2.22705078 C-20.00021484 1.8825589 -18.88324219 1.53806702 -17.73242188 1.18313599 C-11.8806098 -0.2590403 -5.99219517 -0.03546603 0 0 Z " fill="#ff6565" transform="translate(433.1171875,147.77294921875)"/>
<path d="M0 0 C4.46573137 3.93130602 8.74207438 8.03725259 12.93798828 12.25390625 C13.79005859 13.10597656 14.64212891 13.95804687 15.52001953 14.8359375 C29.82185674 29.93927872 41.16609339 50.35762894 46.93798828 70.25390625 C47.19596191 71.09002441 47.45393555 71.92614258 47.71972656 72.78759766 C54.51240333 95.22496397 55.28505459 119.18681453 50.93798828 142.25390625 C50.82503418 142.9303418 50.71208008 143.60677734 50.59570312 144.30371094 C44.29551925 181.63251122 20.37465431 215.45302166 -10.06201172 237.25390625 C-42.31321366 259.89935452 -82.43071624 269.23048924 -121.36791992 262.87768555 C-123.52750904 262.46067646 -125.66887508 261.99836371 -127.81201172 261.50390625 C-128.96515869 261.2394873 -128.96515869 261.2394873 -130.14160156 260.96972656 C-143.63603834 257.77785359 -155.91574404 252.88812045 -168.06201172 246.25390625 C-168.70702637 245.90312012 -169.35204102 245.55233398 -170.01660156 245.19091797 C-195.61900671 231.0665686 -215.71436408 209.08008188 -229.06201172 183.25390625 C-229.38298828 182.63789551 -229.70396484 182.02188477 -230.03466797 181.38720703 C-233.80998642 174.03994765 -236.79397796 166.55838526 -239.31201172 158.69140625 C-239.66332153 157.59542114 -239.66332153 157.59542114 -240.02172852 156.47729492 C-240.75425348 154.08115822 -241.41830013 151.67544494 -242.06201172 149.25390625 C-242.33489014 148.25770264 -242.60776855 147.26149902 -242.88891602 146.23510742 C-245.20299289 136.84807272 -245.49328306 127.8754844 -245.39819336 118.24926758 C-245.37451026 115.6912489 -245.37766979 113.13427341 -245.38427734 110.57617188 C-245.36386073 97.33459702 -244.05258748 85.07883885 -239.87451172 72.44140625 C-239.56553955 71.4963623 -239.25656738 70.55131836 -238.93823242 69.57763672 C-234.05677193 54.95431205 -227.77759547 41.98434624 -219.06201172 29.25390625 C-218.48459229 28.40965088 -218.48459229 28.40965088 -217.89550781 27.54833984 C-196.96608342 -2.46281498 -163.81043855 -24.32745633 -127.93701172 -31.43359375 C-126.91736328 -31.64564453 -125.89771484 -31.85769531 -124.84716797 -32.07617188 C-81.32940377 -40.9305565 -33.92710851 -28.72918305 0 0 Z " fill="#00000000" transform="translate(608.06201171875,439.74609375)"/>
<path d="M0 0 C0.82279449 -0.00701431 1.64558899 -0.01402863 2.49331665 -0.02125549 C5.15054801 -0.03875065 7.80755682 -0.04511242 10.46484375 -0.046875 C11.37005768 -0.04754974 12.27527161 -0.04822449 13.20791626 -0.04891968 C26.50299081 -0.03313488 39.3641947 0.38764064 52.40234375 3.203125 C53.28889648 3.38536621 54.17544922 3.56760742 55.08886719 3.75537109 C65.67399029 5.96045156 75.57993325 8.61692598 85.40234375 13.203125 C86.90061571 13.83872435 88.40079299 14.46984202 89.90234375 15.09765625 C111.89534191 24.42919624 131.19867332 37.66368895 148.40234375 54.203125 C148.91861328 54.69748047 149.43488281 55.19183594 149.96679688 55.70117188 C174.68551159 79.50097526 190.96994036 109.39932209 200.40234375 142.203125 C200.68851563 143.13511719 200.9746875 144.06710937 201.26953125 145.02734375 C208.15330956 169.33346818 208.29856243 196.38644552 204.40234375 221.203125 C204.22783355 222.52586647 204.0546716 223.84878647 203.8828125 225.171875 C199.60074572 255.51108407 185.4018903 285.36856839 166.40234375 309.203125 C165.76554687 310.04359375 165.12875 310.8840625 164.47265625 311.75 C152.89638654 326.61447083 138.99283084 339.66017008 123.40234375 350.203125 C122.76119629 350.64060059 122.12004883 351.07807617 121.45947266 351.52880859 C110.99198898 358.58864122 99.96004316 364.15633458 88.40234375 369.203125 C87.29270264 369.69256592 87.29270264 369.69256592 86.16064453 370.19189453 C73.9248239 375.50980187 61.48911203 378.71607856 48.40234375 381.203125 C47.13680664 381.4508667 47.13680664 381.4508667 45.84570312 381.70361328 C22.03607667 386.2181052 -1.9822116 385.30650062 -25.59765625 380.203125 C-26.73895996 379.96287598 -26.73895996 379.96287598 -27.90332031 379.71777344 C-60.19282339 372.7764882 -90.60003008 356.87491547 -114.59765625 334.203125 C-115.92707573 333.07350267 -117.26029343 331.94833188 -118.59765625 330.828125 C-132.41451751 318.69692081 -143.48873816 303.07647172 -152.59765625 287.203125 C-153.54511719 285.60597656 -153.54511719 285.60597656 -154.51171875 283.9765625 C-165.39092117 264.77542037 -172.16036333 243.94232164 -175.59765625 222.203125 C-175.7260791 221.41035156 -175.85450195 220.61757813 -175.98681641 219.80078125 C-183.36780596 172.14952559 -171.88389616 121.05883713 -143.6015625 81.90625 C-142.94027344 81.01421875 -142.27898437 80.1221875 -141.59765625 79.203125 C-141.11167969 78.51734375 -140.62570312 77.8315625 -140.125 77.125 C-113.95377274 40.80574584 -73.4660022 13.7797939 -29.56542969 4.62060547 C-26.50158748 3.97058436 -23.45766926 3.23776811 -20.41015625 2.515625 C-13.52576436 0.90054486 -7.05661109 0.03990479 0 0 Z M-15.59765625 45.203125 C-16.31373047 45.33702637 -17.02980469 45.47092773 -17.76757812 45.60888672 C-45.2322071 50.810521 -69.45334254 65.16564171 -89.59765625 84.203125 C-90.47035156 84.99976563 -91.34304688 85.79640625 -92.2421875 86.6171875 C-108.91983529 102.41204135 -121.16480259 123.43101117 -127.98925781 145.26611328 C-128.5605833 147.08509258 -129.16776914 148.89269798 -129.77734375 150.69921875 C-134.03625324 163.64692534 -134.97087426 176.33385611 -134.96826172 189.85766602 C-134.97262047 192.3700014 -135.00903367 194.88055293 -135.046875 197.39257812 C-135.12657917 208.80662095 -133.62634815 219.2060547 -130.59765625 230.203125 C-130.19788574 231.66069214 -130.19788574 231.66069214 -129.79003906 233.14770508 C-129.10167439 235.46573845 -128.34937067 237.73902858 -127.53515625 240.015625 C-127.10178955 241.23584351 -127.10178955 241.23584351 -126.65966797 242.48071289 C-119.20468132 262.58385369 -107.9292984 280.36592135 -93.03808594 295.71142578 C-91.72023274 297.07618562 -90.42710953 298.46471425 -89.13671875 299.85546875 C-65.08596029 325.14472142 -29.27274786 340.01293779 5.37817383 341.31494141 C48.58652768 342.12244294 86.93036011 328.93627756 118.5546875 298.98828125 C133.3958988 284.47280299 144.23489675 268.2140426 152.40234375 249.203125 C153.01529297 247.94628906 153.01529297 247.94628906 153.640625 246.6640625 C156.80571221 239.86353457 158.55195059 232.93571162 160.15234375 225.640625 C160.46848633 224.20444824 160.46848633 224.20444824 160.79101562 222.73925781 C166.03008125 197.65186324 165.09428355 171.58811437 157.40234375 147.203125 C157.16741211 146.44016113 156.93248047 145.67719727 156.69042969 144.89111328 C145.49698651 109.49408954 119.24699127 77.84111117 86.31640625 60.6640625 C85.35476563 60.18195313 84.393125 59.69984375 83.40234375 59.203125 C81.74332031 58.35621094 81.74332031 58.35621094 80.05078125 57.4921875 C50.07652661 42.60093536 17.11140599 38.67410063 -15.59765625 45.203125 Z " fill="#ff6565" transform="translate(497.59765625,362.796875)"/>
<path d="M0 0 C14.19 0 28.38 0 43 0 C43 28.38 43 56.76 43 86 C71.05 86 99.1 86 128 86 C128 99.86 128 113.72 128 128 C99.95 128 71.9 128 43 128 C43 156.38 43 184.76 43 214 C28.81 214 14.62 214 0 214 C0 185.62 0 157.24 0 128 C-28.05 128 -56.1 128 -85 128 C-85 114.14 -85 100.28 -85 86 C-56.95 86 -28.9 86 0 86 C0 57.62 0 29.24 0 0 Z " fill="#ff6565" transform="translate(768,85)"/>
<path d="M0 0 C0.33 0.99 0.66 1.98 1 3 C0.29875 3.37125 -0.4025 3.7425 -1.125 4.125 C-3.55835356 5.71196971 -5.20260458 7.12457429 -7.1875 9.1875 C-8.115625 10.115625 -9.04375 11.04375 -10 12 C-10.66 12 -11.32 12 -12 12 C-12.268125 12.5775 -12.53625 13.155 -12.8125 13.75 C-14.01839219 16.03484837 -15.43097836 17.95345004 -17 20 C-17.33 20.66 -17.66 21.32 -18 22 C-19.64142963 23.0409066 -21.30712215 24.04504326 -23 25 C-18.34922059 14.838047 -9.18709155 6.1247277 0 0 Z " fill="#ff6565" transform="translate(371,169)"/>
<path d="M0 0 C0.66 0.33 1.32 0.66 2 1 C-0.56411552 3.56411552 -3.1267962 6.12103274 -5.75 8.625 C-8.19004674 10.86533112 -8.19004674 10.86533112 -9 14 C-12.0625 15.1875 -12.0625 15.1875 -15 16 C-10.74015016 9.71880965 -5.81328353 4.85732135 0 0 Z " fill="#ff6565" transform="translate(144,300)"/>
<path d="M0 0 C0.33 0.66 0.66 1.32 1 2 C-0.98 4.31 -2.96 6.62 -5 9 C-5 4.61031544 -2.87194899 3.23094261 0 0 Z " fill="#ff6565" transform="translate(389,212)"/>
</svg>
